name analog
datacolumns 19
datarows 64
range 0.6715 0.7030000000000001
endheader
time	ground_force_vx	ground_force_vy	ground_force_vz	ground_force_px	ground_force_py	ground_force_pz	l_ground_force_vx	l_ground_force_vy	l_ground_force_vz	l_ground_force_px	l_ground_force_py	l_ground_force_pz	ground_torque_x	ground_torque_y	ground_torque_z	l_ground_torque_x	l_ground_torque_y	l_ground_torque_z
0.6715	-0.0	-0.0	-0.0	7.073172569274902	-7.24822473526001	-704.9471435546875	-0.0	-0.0	-0.0	-0.0	-0.0	-0.0	-0.0	-0.0	-0.0	-0.0	-0.0	-0.0
0.672	-0.0	-0.0	-0.0	8.177067756652832	-6.980758190155029	-707.6526489257812	-0.0	-0.0	-0.0	-0.0	-0.0	-0.0	-0.0	-0.0	-0.0	-0.0	-0.0	-0.0
0.6725	-0.0	-0.0	-0.0	9.30998706817627	-6.331790924072266	-709.6445922851562	-0.0	-0.0	-0.0	-0.0	-0.0	-0.0	-0.0	-0.0	-0.0	-0.0	-0.0	-0.0
0.673	-0.0	-0.0	-0.0	10.67117404937744	-4.816767692565918	-712.9501342773438	-0.0	-0.0	-0.0	-0.0	-0.0	-0.0	-0.0	-0.0	-0.0	-0.0	-0.0	-0.0
0.6735	-0.0	-0.0	-0.0	10.17197608947754	-3.184253454208374	-716.714599609375	-0.0	-0.0	-0.0	-0.0	-0.0	-0.0	-0.0	-0.0	-0.0	-0.0	-0.0	-0.0
0.674	-0.0	-0.0	-0.0	8.298667907714844	-1.7259730100631714	-715.55078125	-0.0	-0.0	-0.0	-0.0	-0.0	-0.0	-0.0	-0.0	-0.0	-0.0	-0.0	-0.0
0.6745	-0.0	-0.0	-0.0	5.9488205909729	-0.9260959029197692	-717.5065307617188	-0.0	-0.0	-0.0	-0.0	-0.0	-0.0	-0.0	-0.0	-0.0	-0.0	-0.0	-0.0
0.675	-0.0	-0.0	-0.0	4.077768325805664	-0.7389351725578308	-720.9337768554688	-0.0	-0.0	-0.0	-0.0	-0.0	-0.0	-0.0	-0.0	-0.0	-0.0	-0.0	-0.0
0.6755	-0.0	-0.0	-0.0	2.173997163772583	-1.036649465560913	-724.1398315429688	-0.0	-0.0	-0.0	-0.0	-0.0	-0.0	-0.0	-0.0	-0.0	-0.0	-0.0	-0.0
0.676	-0.0	-0.0	-0.0	0.9532260894775392	-1.1892282962799072	-725.3301391601562	-0.0	-0.0	-0.0	-0.0	-0.0	-0.0	-0.0	-0.0	-0.0	-0.0	-0.0	-0.0
0.6765	-0.0	-0.0	-0.0	0.9227032661437988	-1.42608642578125	-728.4890747070312	-0.0	-0.0	-0.0	-0.0	-0.0	-0.0	-0.0	-0.0	-0.0	-0.0	-0.0	-0.0
0.677	-0.0	-0.0	-0.0	1.6589694023132324	-2.080607652664185	-731.0610961914062	-0.0	-0.0	-0.0	-0.0	-0.0	-0.0	-0.0	-0.0	-0.0	-0.0	-0.0	-0.0
0.6775	-0.0	-0.0	-0.0	3.442999839782715	-2.462245464324951	-734.8460083007812	-0.0	-0.0	-0.0	-0.0	-0.0	-0.0	-0.0	-0.0	-0.0	-0.0	-0.0	-0.0
0.678	-0.0	-0.0	-0.0	5.678773403167725	-3.205809593200684	-736.9535522460938	-0.0	-0.0	-0.0	-0.0	-0.0	-0.0	-0.0	-0.0	-0.0	-0.0	-0.0	-0.0
0.6785	-0.0	-0.0	-0.0	7.552156448364258	-3.654346466064453	-737.0984497070312	-0.0	-0.0	-0.0	-0.0	-0.0	-0.0	-0.0	-0.0	-0.0	-0.0	-0.0	-0.0
0.679	-0.0	-0.0	-0.0	9.280970573425291	-3.860267639160156	-737.0621337890625	-0.0	-0.0	-0.0	-0.0	-0.0	-0.0	-0.0	-0.0	-0.0	-0.0	-0.0	-0.0
0.6795	-0.0	-0.0	-0.0	9.874756813049316	-4.305844306945801	-738.6212158203125	-0.0	-0.0	-0.0	-0.0	-0.0	-0.0	-0.0	-0.0	-0.0	-0.0	-0.0	-0.0
0.68	-0.0	-0.0	-0.0	9.86822509765625	-4.247448921203613	-738.0501098632812	-0.0	-0.0	-0.0	-0.0	-0.0	-0.0	-0.0	-0.0	-0.0	-0.0	-0.0	-0.0
0.6805	-0.0	-0.0	-0.0	8.516047477722168	-4.665621280670166	-738.3770751953125	-0.0	-0.0	-0.0	-0.0	-0.0	-0.0	-0.0	-0.0	-0.0	-0.0	-0.0	-0.0
0.681	-0.0	-0.0	-0.0	5.627250671386719	-4.576524257659912	-737.7791137695312	-0.0	-0.0	-0.0	-0.0	-0.0	-0.0	-0.0	-0.0	-0.0	-0.0	-0.0	-0.0
0.6815	-0.0	-0.0	-0.0	1.5784573554992676	-4.038175582885742	-738.2686157226562	-0.0	-0.0	-0.0	-0.0	-0.0	-0.0	-0.0	-0.0	-0.0	-0.0	-0.0	-0.0
0.682	-0.0	-0.0	-0.0	-1.094062089920044	-3.499600410461426	-738.8377075195312	-0.0	-0.0	-0.0	-0.0	-0.0	-0.0	-0.0	-0.0	-0.0	-0.0	-0.0	-0.0
0.6825	-0.0	-0.0	-0.0	-3.0875675678253174	-3.0847949981689453	-740.6333618164062	-0.0	-0.0	-0.0	-0.0	-0.0	-0.0	-0.0	-0.0	-0.0	-0.0	-0.0	-0.0
0.683	-0.0	-0.0	-0.0	-3.773971080780029	-3.5381107330322266	-743.1825561523438	-0.0	-0.0	-0.0	-0.0	-0.0	-0.0	-0.0	-0.0	-0.0	-0.0	-0.0	-0.0
0.6835	-0.0	-0.0	-0.0	-3.840075731277466	-4.072968482971191	-745.086669921875	-0.0	-0.0	-0.0	-0.0	-0.0	-0.0	-0.0	-0.0	-0.0	-0.0	-0.0	-0.0
0.684	-0.0	-0.0	-0.0	-2.916935443878174	-5.629948616027832	-748.1582641601562	-0.0	-0.0	-0.0	-0.0	-0.0	-0.0	-0.0	-0.0	-0.0	-0.0	-0.0	-0.0
0.6845	-0.0	-0.0	-0.0	-1.230413794517517	-5.913715839385986	-749.0946044921875	-0.0	-0.0	-0.0	-0.0	-0.0	-0.0	-0.0	-0.0	-0.0	-0.0	-0.0	-0.0
0.685	-0.0	-0.0	-0.0	0.4148775935173034	-6.595649719238281	-750.366943359375	-0.0	-0.0	-0.0	-0.0	-0.0	-0.0	-0.0	-0.0	-0.0	-0.0	-0.0	-0.0
0.6855	-0.0	-0.0	-0.0	1.6282066106796265	-6.533304214477539	-748.617919921875	-0.0	-0.0	-0.0	-0.0	-0.0	-0.0	-0.0	-0.0	-0.0	-0.0	-0.0	-0.0
0.686	-0.0	-0.0	-0.0	3.175835132598877	-6.542230606079102	-746.8697509765625	-0.0	-0.0	-0.0	-0.0	-0.0	-0.0	-0.0	-0.0	-0.0	-0.0	-0.0	-0.0
0.6865	-0.0	-0.0	-0.0	5.107039451599121	-6.533153533935547	-743.6041870117188	-0.0	-0.0	-0.0	-0.0	-0.0	-0.0	-0.0	-0.0	-0.0	-0.0	-0.0	-0.0
0.687	-0.0	-0.0	-0.0	5.955192565917969	-6.292293548583984	-738.27001953125	-0.0	-0.0	-0.0	-0.0	-0.0	-0.0	-0.0	-0.0	-0.0	-0.0	-0.0	-0.0
0.6875	-0.0	-0.0	-0.0	6.5654296875	-5.998244285583496	-734.1560668945312	-0.0	-0.0	-0.0	-0.0	-0.0	-0.0	-0.0	-0.0	-0.0	-0.0	-0.0	-0.0
0.6880000000000001	-0.0	-0.0	-0.0	5.251728057861328	-5.986487865447998	-730.8925170898438	-0.0	-0.0	-0.0	-0.0	-0.0	-0.0	-0.0	-0.0	-0.0	-0.0	-0.0	-0.0
0.6885	-0.0	-0.0	-0.0	4.05590295791626	-5.709352493286133	-726.3667602539062	-0.0	-0.0	-0.0	-0.0	-0.0	-0.0	-0.0	-0.0	-0.0	-0.0	-0.0	-0.0
0.6890000000000001	-0.0	-0.0	-0.0	2.3406906127929688	-5.90891170501709	-723.9986572265625	-0.0	-0.0	-0.0	-0.0	-0.0	-0.0	-0.0	-0.0	-0.0	-0.0	-0.0	-0.0
0.6895	-0.0	-0.0	-0.0	0.6349232792854309	-5.704345703125	-725.09912109375	-0.0	-0.0	-0.0	-0.0	-0.0	-0.0	-0.0	-0.0	-0.0	-0.0	-0.0	-0.0
0.6900000000000001	-0.0	-0.0	-0.0	-0.3830202221870422	-5.615215301513672	-723.2088623046875	-0.0	-0.0	-0.0	-0.0	-0.0	-0.0	-0.0	-0.0	-0.0	-0.0	-0.0	-0.0
0.6905	-0.0	-0.0	-0.0	-0.8028945922851562	-6.464214324951172	-725.4529418945312	-0.0	-0.0	-0.0	-0.0	-0.0	-0.0	-0.0	-0.0	-0.0	-0.0	-0.0	-0.0
0.6910000000000001	-0.0	-0.0	-0.0	-0.5092034339904785	-6.322747707366943	-723.3125	-0.0	-0.0	-0.0	-0.0	-0.0	-0.0	-0.0	-0.0	-0.0	-0.0	-0.0	-0.0
0.6915	-0.0	-0.0	-0.0	-0.7080551385879517	-6.889001846313477	-724.2023315429688	-0.0	-0.0	-0.0	-0.0	-0.0	-0.0	-0.0	-0.0	-0.0	-0.0	-0.0	-0.0
0.6920000000000001	-0.0	-0.0	-0.0	0.3309088349342346	-7.2081618309021	-724.1666870117188	-0.0	-0.0	-0.0	-0.0	-0.0	-0.0	-0.0	-0.0	-0.0	-0.0	-0.0	-0.0
0.6925	-0.0	-0.0	-0.0	0.9813156127929688	-8.194183349609375	-721.6719970703125	-0.0	-0.0	-0.0	-0.0	-0.0	-0.0	-0.0	-0.0	-0.0	-0.0	-0.0	-0.0
0.6930000000000001	-0.0	-0.0	-0.0	1.5998575687408447	-8.5565185546875	-720.9107666015625	-0.0	-0.0	-0.0	-0.0	-0.0	-0.0	-0.0	-0.0	-0.0	-0.0	-0.0	-0.0
0.6935	-0.0	-0.0	-0.0	2.281724691390991	-8.798201560974121	-719.882568359375	-0.0	-0.0	-0.0	-0.0	-0.0	-0.0	-0.0	-0.0	-0.0	-0.0	-0.0	-0.0
0.6940000000000001	-0.0	-0.0	-0.0	2.28769588470459	-9.79822826385498	-716.8779296875	-0.0	-0.0	-0.0	-0.0	-0.0	-0.0	-0.0	-0.0	-0.0	-0.0	-0.0	-0.0
0.6945	-0.0	-0.0	-0.0	2.2938930988311768	-9.27579116821289	-714.4064331054688	-0.0	-0.0	-0.0	-0.0	-0.0	-0.0	-0.0	-0.0	-0.0	-0.0	-0.0	-0.0
0.6950000000000001	-0.0	-0.0	-0.0	2.0836825370788574	-9.275867462158203	-714.2308959960938	-0.0	-0.0	-0.0	-0.0	-0.0	-0.0	-0.0	-0.0	-0.0	-0.0	-0.0	-0.0
0.6955	-0.0	-0.0	-0.0	1.3954896926879885	-8.779467582702637	-712.26318359375	-0.0	-0.0	-0.0	-0.0	-0.0	-0.0	-0.0	-0.0	-0.0	-0.0	-0.0	-0.0
0.6960000000000001	-0.0	-0.0	-0.0	-0.337228000164032	-8.486211776733398	-710.3971557617188	-0.0	-0.0	-0.0	-0.0	-0.0	-0.0	-0.0	-0.0	-0.0	-0.0	-0.0	-0.0
0.6965	-0.0	-0.0	-0.0	-0.4339897036552429	-7.894066333770752	-710.3976440429688	-0.0	-0.0	-0.0	-0.0	-0.0	-0.0	-0.0	-0.0	-0.0	-0.0	-0.0	-0.0
0.6970000000000001	-0.0	-0.0	-0.0	-0.3181347846984863	-8.11758804321289	-712.6437377929688	-0.0	-0.0	-0.0	-0.0	-0.0	-0.0	-0.0	-0.0	-0.0	-0.0	-0.0	-0.0
0.6975	-0.0	-0.0	-0.0	0.5535984039306641	-7.461800098419189	-712.7896728515625	-0.0	-0.0	-0.0	-0.0	-0.0	-0.0	-0.0	-0.0	-0.0	-0.0	-0.0	-0.0
0.6980000000000001	-0.0	-0.0	-0.0	2.262317657470703	-7.409006118774414	-712.3638916015625	-0.0	-0.0	-0.0	-0.0	-0.0	-0.0	-0.0	-0.0	-0.0	-0.0	-0.0	-0.0
0.6985	-0.0	-0.0	-0.0	3.47619366645813	-7.697262287139893	-714.836181640625	-0.0	-0.0	-0.0	-0.0	-0.0	-0.0	-0.0	-0.0	-0.0	-0.0	-0.0	-0.0
0.6990000000000001	-0.0	-0.0	-0.0	5.1742095947265625	-7.690174579620361	-715.5426025390625	-0.0	-0.0	-0.0	-0.0	-0.0	-0.0	-0.0	-0.0	-0.0	-0.0	-0.0	-0.0
0.6995	-0.0	-0.0	-0.0	6.098466396331787	-7.964728832244873	-716.31884765625	-0.0	-0.0	-0.0	-0.0	-0.0	-0.0	-0.0	-0.0	-0.0	-0.0	-0.0	-0.0
0.7000000000000001	-0.0	-0.0	-0.0	6.869209289550781	-8.742094039916992	-717.024658203125	-0.0	-0.0	-0.0	-0.0	-0.0	-0.0	-0.0	-0.0	-0.0	-0.0	-0.0	-0.0
0.7005	-0.0	-0.0	-0.0	7.857959747314453	-9.04178524017334	-716.955322265625	-0.0	-0.0	-0.0	-0.0	-0.0	-0.0	-0.0	-0.0	-0.0	-0.0	-0.0	-0.0
0.7010000000000001	-0.0	-0.0	-0.0	7.2335991859436035	-9.212655067443848	-716.1810302734375	-0.0	-0.0	-0.0	-0.0	-0.0	-0.0	-0.0	-0.0	-0.0	-0.0	-0.0	-0.0
0.7015	-0.0	-0.0	-0.0	6.941390037536621	-8.539504051208496	-715.5726928710938	-0.0	-0.0	-0.0	-0.0	-0.0	-0.0	-0.0	-0.0	-0.0	-0.0	-0.0	-0.0
0.7020000000000001	-0.0	-0.0	-0.0	6.42315673828125	-8.289127349853516	-714.7388916015625	-0.0	-0.0	-0.0	-0.0	-0.0	-0.0	-0.0	-0.0	-0.0	-0.0	-0.0	-0.0
0.7025	-0.0	-0.0	-0.0	5.4741950035095215	-7.53496503829956	-712.5890502929688	-0.0	-0.0	-0.0	-0.0	-0.0	-0.0	-0.0	-0.0	-0.0	-0.0	-0.0	-0.0
0.7030000000000001	-0.0	-0.0	-0.0	4.110991477966309	-7.09807825088501	-712.17041015625	-0.0	-0.0	-0.0	-0.0	-0.0	-0.0	-0.0	-0.0	-0.0	-0.0	-0.0	-0.0
